<svg pointer-events="none" class="leaflet-zoom-animated" width="1594" height="684" viewBox="-277 -16 1594 684" style="transform: translate3d(-277px, -16px, 0px);"><g><path class="leaflet-interactive" stroke="#128b87" stroke-opacity="1" stroke-width="2" stroke-linecap="round" stroke-linejoin="round" stroke-dasharray="6 4" fill="#128b87" fill-opacity="0.06" fill-rule="evenodd" d="M3 301L15 297L21 299L30 296L44 298L50 296L58 297L62 294L65 289L65 283L70 269L72 265L75 263L83 264L96 259L100 259L110 266L122 268L133 257L146 253L154 247L171 239L182 238L186 234L191 232L203 234L214 232L222 235L229 235L241 240L264 242L282 248L298 249L322 257L329 257L329 259L341 265L346 263L353 263L357 268L361 270L368 265L372 264L373 262L386 267L386 265L390 265L393 254L396 251L423 236L436 235L467 224L514 219L526 220L532 219L533 216L536 220L572 359L577 364L574 365L572 370L569 370L565 378L562 379L563 380L560 380L558 382L557 387L550 390L548 389L546 391L544 390L540 397L537 396L532 400L531 399L526 407L517 397L504 392L497 392L487 387L476 384L473 377L470 375L461 373L449 373L450 359L434 359L430 363L420 363L419 359L410 355L377 356L377 354L370 354L369 351L357 351L351 350L349 348L331 348L327 347L331 341L333 333L326 334L314 330L308 330L302 327L300 328L293 326L289 327L289 330L285 331L280 329L249 336L249 338L200 351L189 355L185 358L166 361L159 366L150 368L152 374L151 388L142 386L123 388L125 408L122 408L119 411L108 409L100 411L95 408L91 408L90 395L69 395L68 398L62 398L56 404L53 410L44 412L39 418L33 418L27 415L23 403L31 398L29 386L26 381L23 380L9 383L7 377L0 374L-5 362L-18 357L-39 345L-47 343L-53 344L-57 337L-46 335L-38 331L-36 328L-31 328L-27 326L-19 326L-12 331L-8 330L-7 326L1 316L0 313L3 311L3 301zM501 313L484 315L469 324L467 328L464 329L458 366L459 367L464 364L473 372L484 372L517 381L532 380L545 372L546 370L548 363L544 348L547 343L548 334L533 321L518 318L506 313L501 313z"></path><path class="leaflet-interactive" stroke="#fff" stroke-opacity="1" stroke-width="2" stroke-linecap="round" stroke-linejoin="round" fill="#845bb6" fill-opacity="1" fill-rule="evenodd" d="M16,385a6,6 0 1,0 12,0 a6,6 0 1,0 -12,0 "></path><path class="leaflet-interactive" stroke="#fff" stroke-opacity="1" stroke-width="2" stroke-linecap="round" stroke-linejoin="round" fill="#327bc2" fill-opacity="1" fill-rule="evenodd" d="M-8,389a6,6 0 1,0 12,0 a6,6 0 1,0 -12,0 "></path><path class="leaflet-interactive" stroke="#fff" stroke-opacity="1" stroke-width="2" stroke-linecap="round" stroke-linejoin="round" fill="#327bc2" fill-opacity="1" fill-rule="evenodd" d="M8,387a6,6 0 1,0 12,0 a6,6 0 1,0 -12,0 "></path><path class="leaflet-interactive" stroke="#fff" stroke-opacity="1" stroke-width="2" stroke-linecap="round" stroke-linejoin="round" fill="#327bc2" fill-opacity="1" fill-rule="evenodd" d="M27,327a6,6 0 1,0 12,0 a6,6 0 1,0 -12,0 "></path><path class="leaflet-interactive" stroke="#fff" stroke-opacity="1" stroke-width="2" stroke-linecap="round" stroke-linejoin="round" fill="#327bc2" fill-opacity="1" fill-rule="evenodd" d="M-20,249a6,6 0 1,0 12,0 a6,6 0 1,0 -12,0 "></path><path class="leaflet-interactive" stroke="#fff" stroke-opacity="1" stroke-width="2" stroke-linecap="round" stroke-linejoin="round" fill="#327bc2" fill-opacity="1" fill-rule="evenodd" d="M-5,246a6,6 0 1,0 12,0 a6,6 0 1,0 -12,0 "></path><path class="leaflet-interactive" stroke="#fff" stroke-opacity="1" stroke-width="2" stroke-linecap="round" stroke-linejoin="round" fill="#118b87" fill-opacity="1" fill-rule="evenodd" d="M144,277a6,6 0 1,0 12,0 a6,6 0 1,0 -12,0 "></path><path class="leaflet-interactive" stroke="#fff" stroke-opacity="1" stroke-width="2" stroke-linecap="round" stroke-linejoin="round" fill="#118b87" fill-opacity="1" fill-rule="evenodd" d="M343,300a6,6 0 1,0 12,0 a6,6 0 1,0 -12,0 "></path><path class="leaflet-interactive" stroke="#fff" stroke-opacity="1" stroke-width="2" stroke-linecap="round" stroke-linejoin="round" fill="#327bc2" fill-opacity="1" fill-rule="evenodd" d="M38,530a6,6 0 1,0 12,0 a6,6 0 1,0 -12,0 "></path><path class="leaflet-interactive" stroke="#fff" stroke-opacity="1" stroke-width="2" stroke-linecap="round" stroke-linejoin="round" fill="#327bc2" fill-opacity="1" fill-rule="evenodd" d="M38,459a6,6 0 1,0 12,0 a6,6 0 1,0 -12,0 "></path><path class="leaflet-interactive" stroke="#fff" stroke-opacity="1" stroke-width="2" stroke-linecap="round" stroke-linejoin="round" fill="#118b87" fill-opacity="1" fill-rule="evenodd" d="M43,463a6,6 0 1,0 12,0 a6,6 0 1,0 -12,0 "></path><path class="leaflet-interactive" stroke="#fff" stroke-opacity="1" stroke-width="2" stroke-linecap="round" stroke-linejoin="round" fill="#118b87" fill-opacity="1" fill-rule="evenodd" d="M44,463a6,6 0 1,0 12,0 a6,6 0 1,0 -12,0 "></path><path class="leaflet-interactive" stroke="#fff" stroke-opacity="1" stroke-width="2" stroke-linecap="round" stroke-linejoin="round" fill="#118b87" fill-opacity="1" fill-rule="evenodd" d="M148,430a6,6 0 1,0 12,0 a6,6 0 1,0 -12,0 "></path><path class="leaflet-interactive" stroke="#fff" stroke-opacity="1" stroke-width="2" stroke-linecap="round" stroke-linejoin="round" fill="#327bc2" fill-opacity="1" fill-rule="evenodd" d="M244,401a6,6 0 1,0 12,0 a6,6 0 1,0 -12,0 "></path><path class="leaflet-interactive" stroke="#fff" stroke-opacity="1" stroke-width="2" stroke-linecap="round" stroke-linejoin="round" fill="#118b87" fill-opacity="1" fill-rule="evenodd" d="M244,414a6,6 0 1,0 12,0 a6,6 0 1,0 -12,0 "></path><path class="leaflet-interactive" stroke="#fff" stroke-opacity="1" stroke-width="2" stroke-linecap="round" stroke-linejoin="round" fill="#118b87" fill-opacity="1" fill-rule="evenodd" d="M455,343a6,6 0 1,0 12,0 a6,6 0 1,0 -12,0 "></path><path class="leaflet-interactive" stroke="#fff" stroke-opacity="1" stroke-width="2" stroke-linecap="round" stroke-linejoin="round" fill="#118b87" fill-opacity="1" fill-rule="evenodd" d="M124,414a6,6 0 1,0 12,0 a6,6 0 1,0 -12,0 "></path><path class="leaflet-interactive" stroke="#fff" stroke-opacity="1" stroke-width="2" stroke-linecap="round" stroke-linejoin="round" fill="#118b87" fill-opacity="1" fill-rule="evenodd" d="M141,192a6,6 0 1,0 12,0 a6,6 0 1,0 -12,0 "></path><path class="leaflet-interactive" stroke="#fff" stroke-opacity="1" stroke-width="2" stroke-linecap="round" stroke-linejoin="round" fill="#118b87" fill-opacity="1" fill-rule="evenodd" d="M176,213a6,6 0 1,0 12,0 a6,6 0 1,0 -12,0 "></path><path class="leaflet-interactive" stroke="#fff" stroke-opacity="1" stroke-width="2" stroke-linecap="round" stroke-linejoin="round" fill="#327bc2" fill-opacity="1" fill-rule="evenodd" d="M371,202a6,6 0 1,0 12,0 a6,6 0 1,0 -12,0 "></path><path class="leaflet-interactive" stroke="#fff" stroke-opacity="1" stroke-width="2" stroke-linecap="round" stroke-linejoin="round" fill="#118b87" fill-opacity="1" fill-rule="evenodd" d="M90,194a6,6 0 1,0 12,0 a6,6 0 1,0 -12,0 "></path><path class="leaflet-interactive" stroke="#fff" stroke-opacity="1" stroke-width="2" stroke-linecap="round" stroke-linejoin="round" fill="#327bc2" fill-opacity="1" fill-rule="evenodd" d="M-30,191a6,6 0 1,0 12,0 a6,6 0 1,0 -12,0 "></path><path class="leaflet-interactive" stroke="#fff" stroke-opacity="1" stroke-width="2" stroke-linecap="round" stroke-linejoin="round" fill="#327bc2" fill-opacity="1" fill-rule="evenodd" d="M168,176a6,6 0 1,0 12,0 a6,6 0 1,0 -12,0 "></path><path class="leaflet-interactive" stroke="#fff" stroke-opacity="1" stroke-width="2" stroke-linecap="round" stroke-linejoin="round" fill="#327bc2" fill-opacity="1" fill-rule="evenodd" d="M-158,364a6,6 0 1,0 12,0 a6,6 0 1,0 -12,0 "></path><path class="leaflet-interactive" stroke="#fff" stroke-opacity="1" stroke-width="2" stroke-linecap="round" stroke-linejoin="round" fill="#327bc2" fill-opacity="1" fill-rule="evenodd" d="M-197,266a6,6 0 1,0 12,0 a6,6 0 1,0 -12,0 "></path><path class="leaflet-interactive" stroke="#fff" stroke-opacity="1" stroke-width="2" stroke-linecap="round" stroke-linejoin="round" fill="#327bc2" fill-opacity="1" fill-rule="evenodd" d="M-124,219a6,6 0 1,0 12,0 a6,6 0 1,0 -12,0 "></path><path class="leaflet-interactive" stroke="#fff" stroke-opacity="1" stroke-width="2" stroke-linecap="round" stroke-linejoin="round" fill="#327bc2" fill-opacity="1" fill-rule="evenodd" d="M516,645a6,6 0 1,0 12,0 a6,6 0 1,0 -12,0 "></path><path class="leaflet-interactive" stroke="#162d45" stroke-opacity="1" stroke-width="3" stroke-linecap="round" stroke-linejoin="round" fill="#162d45" fill-opacity="0.1" fill-rule="evenodd" d="M455,342a13,13 0 1,0 26,0 a13,13 0 1,0 -26,0 "></path></g></svg>
